<svg version="1.1" id="Layer_1" xmlns="http://www.w3.org/2000/svg" xmlns:xlink="http://www.w3.org/1999/xlink" x="0px" y="0px"
	 width="100%" viewBox="0 0 1078 934" enable-background="new 0 0 1078 934" xml:space="preserve">
<path fill="#166534" opacity="1.000000" stroke="none" 
	d="
M388.044006,297.082642 
	C389.583679,294.636810 391.533752,292.356659 392.598450,289.719086 
	C401.570587,267.492249 413.343719,246.907837 428.935181,228.689255 
	C437.310455,218.902740 445.908600,209.193314 455.326965,200.439819 
	C469.366791,187.391159 484.773987,175.936844 502.162079,167.613403 
	C515.040405,161.448685 527.919678,154.965729 541.421448,150.513733 
	C554.782837,146.108002 568.792603,142.972946 582.760193,141.285385 
	C598.655457,139.364899 614.820984,139.138214 630.864929,139.202545 
	C640.050598,139.239380 649.404724,140.559280 658.370239,142.645569 
	C674.028870,146.289383 689.875793,149.835327 704.854858,155.506165 
	C723.206482,162.453812 740.281372,172.323441 756.376343,183.782654 
	C774.752014,196.865753 791.045776,212.092896 805.121094,229.670425 
	C818.130188,245.916382 829.342102,263.318359 837.118835,282.711121 
	C841.458862,293.533936 845.767639,304.412811 849.235229,315.533112 
	C857.318726,341.455994 859.245911,368.227844 857.871643,395.147644 
	C856.422546,423.531830 849.577881,450.749268 837.975525,476.793091 
	C830.831299,492.829834 822.247864,508.039520 811.977783,522.173218 
	C797.871948,541.585815 781.044556,558.569092 761.932251,573.083984 
	C745.297241,585.717468 727.234253,596.125793 707.858948,603.985718 
	C687.644592,612.186157 666.802551,618.315186 644.913818,619.973267 
	C632.696838,620.898804 620.434692,621.968567 608.208801,621.802002 
	C598.375610,621.668030 588.550110,619.899170 578.749939,618.633545 
	C561.191101,616.365906 544.168945,611.596436 527.993164,604.710632 
	C513.790222,598.664612 500.562775,590.366150 486.583313,583.740112 
	C479.344269,580.308960 478.732361,575.117493 478.854797,568.173279 
	C479.245544,546.013916 478.999725,523.843262 478.999725,501.677002 
	C478.999725,499.903503 478.999725,498.130005 478.999725,494.713928 
	C483.453766,498.855469 486.943390,501.924896 490.236786,505.192139 
	C506.740662,521.565125 525.482178,535.006836 547.143677,543.172119 
	C561.804871,548.698486 577.441223,552.373474 592.967834,554.649353 
	C606.841553,556.682861 621.242554,556.740173 635.264465,555.698425 
	C650.183655,554.589966 664.792664,550.852295 678.985046,545.520691 
	C696.435791,538.964966 712.433289,530.078674 727.137756,518.713196 
	C739.109802,509.459747 749.577148,498.695435 758.683167,486.672791 
	C771.973999,469.124786 781.635620,449.624512 787.136169,428.348816 
	C790.005493,417.250549 791.272095,405.721619 792.994507,394.346649 
	C796.312561,372.434357 792.750305,350.999908 786.836792,330.076477 
	C779.318787,303.475861 765.674622,280.133575 746.579956,259.945557 
	C733.008179,245.596771 717.444458,233.983734 700.037598,224.932083 
	C683.101562,216.125198 665.123413,209.526199 646.177734,207.267334 
	C630.107056,205.351242 613.638306,204.120361 597.587708,205.468018 
	C582.826355,206.707397 568.057556,210.776123 553.878174,215.397141 
	C527.333679,224.047928 504.802734,239.510422 485.695526,259.846832 
	C472.510834,273.879761 462.015320,289.707947 454.089996,307.311859 
	C445.675415,326.002533 440.608887,345.499542 439.033600,365.889374 
	C438.405579,374.018250 438.050140,382.189545 438.044067,390.341888 
	C437.976135,481.840210 438.120483,573.338806 437.957428,664.836975 
	C437.851715,724.154419 437.334595,783.471191 436.993225,842.788208 
	C436.985809,844.079529 436.874908,845.370117 436.803162,846.849487 
	C415.888397,846.849487 395.289764,846.849487 374.139496,846.849487 
	C373.755310,842.899231 373.039673,839.013733 373.048828,835.130005 
	C373.321747,719.483643 373.660156,603.837463 374.003754,488.191223 
	C374.103271,454.697906 374.206451,421.204437 374.399536,387.711578 
	C374.466370,376.119293 374.810730,364.528656 375.351685,352.265442 
	C377.438965,348.627014 379.504242,345.796387 380.915253,342.670471 
	C387.468689,328.152100 387.219879,312.524506 388.044006,297.082642 
z"/>
<path fill="#84cc16" opacity="1.000000" stroke="none" 
	d="
M388.026123,296.645050 
	C387.219879,312.524506 387.468689,328.152100 380.915253,342.670471 
	C379.504242,345.796387 377.438965,348.627014 375.418915,351.801819 
	C368.954651,341.087036 363.218719,329.859619 356.420502,319.317230 
	C347.652924,305.720856 338.701508,292.136597 328.577728,279.554077 
	C320.121582,269.044159 310.468323,259.282898 300.244049,250.467163 
	C288.738312,240.546509 276.094086,231.924698 263.749390,223.008926 
	C258.657227,219.331207 253.069077,216.336380 247.676041,213.081467 
	C246.185989,212.182175 244.586365,211.464401 242.718155,211.279114 
	C256.968567,225.698395 272.039734,239.410782 285.238708,254.735641 
	C298.458862,270.085052 310.265747,286.727356 321.851440,303.387543 
	C333.480194,320.109650 343.897888,337.641785 350.982117,357.689606 
	C333.372955,358.540833 317.201782,358.098846 301.159851,354.829895 
	C278.507294,350.213867 257.617767,341.558228 238.627182,328.293976 
	C218.405106,314.169556 201.772415,296.659027 189.165558,275.500488 
	C183.336746,265.717865 177.597733,255.733185 173.263290,245.242935 
	C166.461823,228.781967 160.900314,211.822876 158.940628,193.918640 
	C157.773804,183.258072 156.083221,172.650085 155.116547,161.974213 
	C154.571747,155.957352 155.018356,149.850723 155.018356,143.397995 
	C166.929611,143.397995 177.349396,143.367264 187.768738,143.420578 
	C190.232666,143.433167 192.709076,143.613800 195.155930,143.912323 
	C208.270981,145.512527 221.405075,146.988571 234.482559,148.857483 
	C255.604065,151.875977 275.463684,159.024155 294.564117,168.286255 
	C314.729401,178.064713 332.764374,190.933075 347.903870,207.509628 
	C361.394958,222.281311 373.003326,238.595154 379.418396,257.621277 
	C383.604675,270.037262 385.233734,283.315460 388.026123,296.645050 
z"/>
<path fill="#84cc16" opacity="1.000000" stroke="none" 
	d="
M431.594208,204.633759 
	C420.260803,215.013580 406.768097,219.327301 392.225922,220.897339 
	C389.263916,221.217133 386.189087,220.491852 382.910767,220.227768 
	C389.363892,198.731812 403.275146,183.241867 416.954987,167.478653 
	C396.590820,179.624420 383.652161,198.588196 371.489197,218.271545 
	C370.909729,218.123123 370.330261,217.974701 369.750763,217.826263 
	C368.833466,210.940750 366.982971,204.027908 367.183685,197.175140 
	C367.675262,180.392075 374.477936,166.088608 387.058624,154.882538 
	C399.628662,143.685974 414.648010,137.486755 431.175934,135.094055 
	C439.030365,133.957001 447.009613,133.690048 454.928802,132.989166 
	C457.897827,132.726395 459.067444,133.887680 459.046082,136.969437 
	C458.865509,163.048737 451.034607,186.009369 431.594208,204.633759 
M419.635101,165.622406 
	C419.305176,165.494186 418.975281,165.365967 418.645386,165.237732 
	C418.589417,165.476044 418.533478,165.714340 418.477509,165.952637 
	C418.719421,165.987946 418.961365,166.023254 419.635101,165.622406 
z"/>
<path fill="#FFFFFF" opacity="1.000000" stroke="none" 
	d="
M419.419189,165.840485 
	C418.961365,166.023254 418.719421,165.987946 418.477539,165.952637 
	C418.533478,165.714340 418.589417,165.476044 418.645386,165.237732 
	C418.975281,165.365967 419.305176,165.494186 419.419189,165.840485 
z"/>
</svg>